<?xml version="1.0" standalone="no"?>
<!DOCTYPE svg PUBLIC "-//W3C//DTD SVG 20010904//EN"
 "http://www.w3.org/TR/2001/REC-SVG-20010904/DTD/svg10.dtd">
<svg version="1.0" xmlns="http://www.w3.org/2000/svg"
 width="639.000000pt" height="643.000000pt" viewBox="0 0 639.000000 643.000000"
 preserveAspectRatio="xMidYMid meet">

<g transform="translate(0.000000,643.000000) scale(0.100000,-0.100000)"
fill="#000000" stroke="none">
<path d="M2920 6323 c-272 -29 -578 -94 -755 -160 -488 -184 -812 -382 -1149
-704 -514 -491 -837 -1125 -942 -1849 -21 -146 -30 -546 -15 -696 57 -568 227
-1041 540 -1499 142 -209 286 -371 546 -616 39 -36 88 -86 110 -110 22 -25 51
-52 65 -62 364 -256 801 -443 1235 -527 240 -47 321 -54 615 -54 346 -1 526
21 821 98 424 111 903 352 1148 578 32 29 84 76 117 103 138 118 340 336 453
488 330 448 517 907 597 1461 21 147 30 571 15 708 -74 663 -284 1175 -694
1691 -102 129 -322 350 -452 454 -90 72 -330 243 -340 243 -3 0 -35 19 -72 41
-135 83 -337 175 -567 258 -159 58 -443 120 -666 146 -123 14 -507 19 -610 8z
m358 -385 c4 -13 6 -105 4 -206 l-3 -183 -37 3 c-36 3 -37 4 -40 46 -3 42 -4
43 -35 40 -29 -3 -32 -7 -37 -43 -5 -38 -7 -40 -43 -43 l-38 -3 3 155 c3 138
5 158 24 183 37 50 81 73 141 73 47 0 54 -3 61 -22z m382 -27 c76 -39 100
-120 57 -195 -16 -28 -22 -49 -17 -66 7 -27 -7 -130 -19 -143 -4 -4 -22 -4
-40 -1 l-32 7 7 63 c6 61 5 64 -17 73 -36 13 -53 -2 -64 -61 -10 -53 -10 -53
-44 -50 -19 1 -37 5 -40 7 -4 4 25 194 51 333 l12 64 56 -7 c30 -3 71 -14 90
-24z m-881 -7 c38 -23 53 -50 57 -106 2 -34 10 -58 28 -79 20 -24 26 -41 26
-81 0 -43 -4 -54 -33 -83 -27 -27 -45 -35 -106 -45 -40 -7 -76 -8 -80 -4 -15
17 -74 385 -64 395 23 21 138 23 172 3z m-346 -174 c6 -24 -2 -29 -98 -60
-255 -81 -569 -257 -802 -452 -401 -334 -682 -764 -832 -1273 -27 -92 -58
-239 -67 -314 -6 -60 -19 -76 -49 -65 -19 8 -19 18 6 149 69 365 197 682 400
986 304 456 778 828 1286 1010 125 44 149 47 156 19z m1607 -9 c570 -195 1071
-603 1385 -1126 166 -276 273 -553 329 -854 22 -117 21 -131 -9 -131 -20 0
-25 6 -30 38 -43 262 -131 527 -252 761 -212 409 -491 721 -868 973 -104 69
-376 218 -399 218 -3 0 -29 11 -58 24 -29 13 -84 34 -123 46 -96 31 -104 36
-98 60 7 27 22 25 123 -9z m-825 -522 c-4 -12 -6 -98 -5 -193 3 -228 4 -260
10 -266 10 -10 30 -76 29 -96 0 -11 -5 -6 -10 14 -5 17 -16 32 -24 32 -9 0
-12 6 -9 15 4 8 1 15 -5 15 -6 0 -11 15 -12 33 0 17 -3 25 -6 17 -3 -8 -10
-26 -15 -39 -7 -19 -11 -21 -23 -11 -8 6 -19 9 -25 5 -5 -3 -10 1 -10 9 0 19
-20 22 -21 4 0 -10 -2 -10 -6 0 -6 15 -33 16 -33 1 0 -5 5 -7 10 -4 6 3 10 1
10 -4 0 -6 -9 -11 -20 -11 -14 0 -18 5 -14 18 5 14 3 14 -10 -2 -16 -20 -51
-33 -40 -15 3 5 10 7 15 4 5 -4 9 -2 9 3 0 5 -21 12 -46 16 -25 3 -52 11 -59
18 -41 37 -45 39 -46 26 0 -10 -2 -10 -6 0 -6 15 -23 16 -23 1 0 -6 -11 -24
-25 -41 -14 -16 -25 -25 -25 -19 0 11 41 81 61 105 5 6 33 43 61 81 40 55 165
185 283 295 19 18 37 11 30 -11z m268 -464 c17 -30 16 -42 -2 -30 -6 3 -11 15
-11 26 0 11 -4 18 -9 15 -5 -3 -11 4 -14 15 -8 31 -27 13 -27 -27 0 -19 -4
-34 -9 -34 -5 0 -12 -8 -14 -17 -3 -10 -3 2 0 27 3 25 11 64 19 88 8 23 14 50
15 60 0 9 8 -8 18 -38 10 -30 26 -68 34 -85z m-360 -45 c-3 -11 -7 -20 -9 -20
-2 0 -4 9 -4 20 0 11 4 20 9 20 5 0 7 -9 4 -20z m397 -10 c0 -5 -8 -10 -17
-10 -15 0 -16 2 -3 10 19 12 20 12 20 0z m-773 -32 c-3 -8 -6 -5 -6 6 -1 11 2
17 5 13 3 -3 4 -12 1 -19z m463 13 c0 -5 3 -18 6 -28 5 -16 4 -16 -10 1 -18
23 -20 36 -6 36 6 0 10 -4 10 -9z m-767 -1062 c18 -10 19 -18 13 -113 -4 -55
-10 -126 -14 -156 l-7 -55 -273 4 -273 3 3 -93 3 -94 207 0 c141 0 210 -4 218
-11 9 -9 9 -49 -1 -163 l-12 -151 -214 0 -214 0 3 -96 3 -96 205 1 c113 1 232
4 266 7 83 9 95 -3 88 -94 -3 -37 -9 -105 -12 -152 l-7 -85 -472 -2 c-260 -1
-474 1 -476 5 -2 4 0 90 6 192 6 119 6 353 0 660 -6 277 -6 480 -1 487 12 16
931 17 961 2z m952 -8 c105 -31 176 -75 227 -138 104 -129 114 -372 23 -536
-43 -75 -127 -159 -202 -199 -95 -51 -168 -69 -313 -77 l-125 -6 0 -190 0
-190 -198 -3 c-169 -2 -198 0 -203 13 -3 8 -2 96 2 196 5 102 5 390 0 656 -7
401 -7 476 5 484 21 14 735 5 784 -10z m1223 10 c7 -4 66 -205 133 -447 66
-241 131 -479 145 -529 71 -259 95 -356 89 -365 -9 -14 -402 -13 -410 0 -6 10
-18 79 -32 177 -3 27 -11 43 -22 45 -9 3 -92 3 -185 2 -122 -2 -171 -6 -177
-15 -4 -7 -12 -51 -19 -98 -6 -47 -15 -93 -19 -101 -12 -22 -389 -28 -397 -6
-3 8 11 68 31 133 40 124 47 148 118 388 25 83 78 256 117 385 80 259 96 316
112 375 6 22 17 45 24 51 15 12 472 18 492 5z m-3984 -357 c36 -36 2 -99 -47
-86 -28 7 -37 20 -37 54 0 43 53 64 84 32z m5177 6 c22 -12 26 -59 7 -78 -7
-7 -24 -12 -38 -12 -34 0 -50 17 -50 52 0 20 7 31 23 38 30 12 35 12 58 0z
m-5152 -543 c79 -358 219 -675 423 -959 44 -62 84 -115 87 -118 3 -3 45 -50
92 -105 48 -55 121 -131 163 -169 78 -70 86 -85 62 -106 -17 -14 -60 21 -195
159 -350 359 -592 820 -695 1323 -14 70 -9 89 23 81 14 -3 23 -29 40 -106z
m5095 55 c12 -20 -56 -275 -116 -437 -111 -297 -277 -576 -481 -810 -101 -115
-259 -265 -280 -265 -46 0 -25 33 95 152 326 325 549 697 670 1118 20 69 42
153 49 188 11 54 16 62 35 62 13 0 25 -4 28 -8z m-2974 -750 c63 -11 192 -28
285 -37 94 -9 202 -21 241 -27 61 -9 79 -8 115 6 40 14 55 15 149 2 105 -13
105 -13 38 -15 l-66 -1 2 -52 2 -53 94 2 c112 3 86 -12 -40 -23 -94 -8 -136 4
-177 50 -50 57 -180 78 -496 78 -252 -1 -360 9 -387 33 -23 20 -26 51 -7 59
20 9 123 0 247 -22z m853 -139 c-7 -2 -21 -2 -30 0 -10 3 -4 5 12 5 17 0 24
-2 18 -5z m129 -134 c51 -13 98 -54 98 -86 0 -37 -65 -95 -129 -116 -66 -21
-170 -22 -218 -2 -20 8 -55 33 -79 54 -23 22 -60 45 -83 51 -49 13 -214 14
-542 5 -192 -6 -251 -5 -270 5 -30 16 -38 28 -32 50 9 33 44 33 313 0 47 -5
139 -10 205 -10 66 0 180 -7 254 -16 l134 -15 36 29 c51 40 59 44 116 58 51
12 130 9 197 -7z m-2086 -636 c56 -39 84 -82 84 -127 0 -45 -27 -95 -62 -116
-25 -14 -37 -31 -46 -62 -6 -24 -25 -59 -41 -78 -27 -33 -30 -34 -55 -21 -31
17 -33 39 -8 72 28 37 32 55 16 78 -22 31 -40 26 -74 -24 -17 -25 -36 -45 -41
-45 -21 0 -49 21 -49 38 0 28 199 321 218 322 2 0 28 -17 58 -37z m3084 12
c12 -22 11 -30 -8 -64 -23 -41 -29 -91 -11 -91 6 0 22 9 36 20 34 27 49 25 70
-6 17 -27 17 -27 -22 -60 -33 -29 -38 -36 -25 -45 9 -6 39 -8 72 -5 51 5 59 3
73 -16 22 -33 19 -44 -17 -59 -43 -18 -128 -15 -169 6 -115 60 -149 218 -67
311 36 41 50 42 68 9z m-244 -172 c4 -16 0 -31 -12 -44 -18 -20 -17 -23 51
-155 l70 -135 -25 -19 c-14 -11 -29 -18 -35 -17 -5 2 -36 50 -67 108 -31 57
-64 117 -72 132 -14 25 -20 27 -50 22 -31 -6 -34 -4 -44 24 -13 36 -11 37 93
89 66 33 82 32 91 -5z m-2473 -50 c11 -7 8 -48 -5 -61 -7 -7 -30 -12 -52 -12
-90 0 -113 -27 -51 -57 38 -18 43 -37 19 -71 l-15 -22 -39 20 c-50 26 -50 26
-50 -10 0 -18 11 -42 30 -64 27 -30 29 -37 19 -60 -35 -76 -132 29 -133 144
-2 124 106 219 229 203 22 -3 43 -7 48 -10z m2199 -100 c9 -27 39 -108 67
-182 29 -74 48 -138 44 -142 -4 -4 -20 -11 -35 -14 -24 -6 -29 -3 -39 21 -43
117 -123 224 -164 224 -20 0 -19 -6 11 -86 14 -38 36 -96 49 -130 25 -67 22
-84 -19 -87 -26 -2 -29 3 -91 168 -36 94 -65 177 -65 186 0 21 29 29 103 29
54 0 57 1 57 24 0 24 12 32 51 35 10 1 21 -16 31 -46z m-1989 8 c16 -16 -11
-58 -41 -64 -40 -8 -46 -31 -26 -103 10 -38 14 -76 10 -96 -13 -68 -94 -114
-158 -89 -51 19 -27 91 25 77 13 -3 32 0 42 8 17 12 17 16 0 90 -9 43 -14 88
-11 100 8 31 44 76 70 86 22 9 75 3 89 -9z m221 -72 c88 -26 100 -36 87 -72
-8 -21 -17 -27 -40 -27 -29 0 -31 -4 -50 -67 -71 -248 -61 -224 -95 -221 -43
4 -44 24 -2 174 20 70 36 132 36 136 0 5 -11 13 -25 18 -27 10 -31 29 -15 61
13 24 17 24 104 -2z m1415 -31 c25 -69 83 -350 74 -359 -5 -5 -23 -11 -38 -12
-25 -2 -30 2 -36 31 -9 43 -13 46 -46 34 -25 -8 -28 -13 -25 -47 3 -41 -8 -55
-45 -55 -25 0 -29 12 -63 174 -28 139 -10 199 74 237 57 26 94 25 105 -3z
m-1006 -57 c11 -11 -39 -370 -53 -385 -4 -4 -22 -5 -40 -1 -30 7 -31 9 -28 48
3 41 2 42 -29 45 -28 3 -33 0 -38 -25 -12 -52 -13 -54 -42 -47 -44 10 -46 18
-34 88 6 36 16 95 22 130 14 82 39 122 92 147 44 21 130 20 150 0z m647 -20
c14 -9 34 -35 44 -56 17 -33 18 -43 7 -86 -10 -39 -10 -52 2 -76 8 -15 17 -52
21 -81 6 -49 5 -53 -19 -62 -36 -14 -54 -3 -60 38 -14 84 -13 83 -48 80 l-32
-3 3 -59 c4 -63 -4 -76 -45 -76 -12 0 -24 4 -27 9 -11 17 -46 375 -39 382 10
10 89 17 133 12 19 -2 46 -12 60 -22z m-450 -146 c5 -157 5 -160 27 -163 35
-5 43 31 43 184 l0 135 37 -3 37 -3 -3 -154 c-1 -85 -6 -164 -11 -175 -13 -35
-47 -58 -93 -63 -39 -5 -48 -1 -78 25 l-34 30 0 159 c0 87 3 166 7 176 6 13
16 17 35 15 l28 -3 5 -160z"/>
<path d="M3164 5872 c-22 -14 -34 -51 -34 -102 l0 -51 33 3 32 3 3 78 c3 77
-3 90 -34 69z"/>
<path d="M3576 5824 c-3 -9 -6 -31 -6 -50 0 -31 3 -34 30 -34 20 0 35 8 46 25
15 23 15 27 0 50 -19 28 -60 34 -70 9z"/>
<path d="M2690 5823 c0 -38 13 -63 31 -63 26 0 43 34 29 60 -14 26 -60 28 -60
3z"/>
<path d="M2720 5646 c0 -45 18 -59 59 -45 25 9 31 17 31 39 0 30 -15 40 -61
40 -26 0 -29 -3 -29 -34z"/>
<path d="M3032 3310 c-22 -9 -22 -11 -20 -192 l3 -183 76 -3 c70 -3 79 -1 108
24 46 38 63 86 65 179 1 70 -2 84 -23 114 -13 18 -38 39 -56 47 -44 18 -125
26 -153 14z"/>
<path d="M4345 3203 c-3 -16 -15 -59 -25 -98 -40 -147 -80 -302 -80 -308 0 -4
52 -7 116 -7 105 0 115 2 110 18 -2 9 -21 98 -41 197 -20 99 -38 190 -41 203
-6 31 -32 28 -39 -5z"/>
<path d="M1599 984 c-22 -36 -22 -37 -4 -50 26 -19 49 -17 68 4 21 23 22 46 1
66 -24 24 -40 19 -65 -20z"/>
<path d="M3784 605 c-14 -21 -15 -35 -8 -78 9 -49 11 -52 42 -55 31 -3 32 -2
31 35 -1 49 -21 115 -36 120 -6 2 -19 -7 -29 -22z"/>
<path d="M2751 561 c-23 -23 -45 -96 -37 -118 4 -9 17 -13 38 -11 32 3 33 5
41 62 12 85 -2 107 -42 67z"/>
<path d="M3433 563 c-7 -3 -13 -17 -13 -31 1 -71 26 -90 71 -53 20 16 22 23
14 47 -10 27 -46 46 -72 37z"/>
</g>
</svg>
